<svg xmlns="http://www.w3.org/2000/svg" viewBox="0 0 1315.14 602.67"><defs><style>.cls-1{fill:#fff;}</style></defs><title>radar-2</title><g id="Layer_2" data-name="Layer 2"><g id="Layer_1-2" data-name="Layer 1"><path class="cls-1" d="M908,344.13c-9.12.56-13-2.85-12.94-12.55q.46-122.82,0-245.66c0-9.82,3-13.41,13.58-13.86,131.83-5.57,251.53,97.49,263.17,227.08,4,44.53,4,44.48-40.86,44.63-6.8,0-13.59.75-20.38,1.16-13.25-18.11-32-27.53-53.66-32.3-23.45-5.16-47.17-5.32-71-3.63C955.46,311.15,928.47,320.69,908,344.13Z"></path><path class="cls-1" d="M.28,407.9c0-58.53.33-117.07-.28-175.59C-.12,220.62,3.08,217,15.14,217.53c42.64,1.8,85.42-2.39,128,2.88C204.25,228,240.51,266.1,243.46,326c1.94,39.56-3,77-34.26,106.18-5.62,5.24-.89,7.42,2.11,10.35,22.68,22.19,31.37,49.87,32.19,80.32.59,21.73,2,43.65-.17,65.18-2.67,26.8-24.73,7.69-37.15,12.19-8.5,3.08-19.07,2.91-18-12.84,1.38-20,.76-40.13.12-60.18-1.3-41.06-19.85-60-61.74-62.59-19.3-1.2-38.76,0-58.06-1.28-12.38-.81-13.58,4.78-13.47,14.62.44,36.22-.2,72.47.41,108.69.18,10.57-2.32,14.36-13.93,14.42C.28,601.29.28,601.74.28,561.75Zm54.93-67.57c0,19.49.34,39-.16,58.48-.21,8.39,2,12.1,11.34,11.67,21-1,42.16-.13,63.09-1.87,39.76-3.3,56.66-21.07,58.83-59.92a108.22,108.22,0,0,0-2.06-29.89c-6.14-27.37-19.35-39.8-47.69-45C114.8,269.42,90.84,272.32,67,271c-10.32-.58-12.27,3.58-12,12.54C55.62,302.44,55.21,321.39,55.21,340.33Z"></path><path class="cls-1" d="M835.36,358.39c0,40.14,1,80.31-.21,120.41-2.41,80-48.39,122.77-130.1,122.6-81.94-.16-127.07-42.64-130.22-122.74-.79-20.06-.53-40,3.49-59.93,10.94-54.2,47.86-87.23,104.64-91,27.81-1.82,55.81-1.64,83.7-1.26,11.2.16,14.6-3,14.3-14-.76-27.3.25-54.64-.5-81.94-.29-10.59,3.36-12.94,13.62-13,41.65-.45,41.65-.8,41.65,40.51V358.39ZM780.84,440c0-18.68-.08-34.25,0-49.83,0-6-.07-11.11-8.59-10.9-30.66.77-61.52-2.48-91.94,2.55-25.42,4.22-41.22,19.52-47.06,44.48-4.25,18.14-4.37,36.47-3.08,54.78,3.2,45.21,25.73,66.08,72.13,66.92a148.48,148.48,0,0,0,27.07-2.47c25.6-4.33,41.31-19.13,47.64-43.86C782.52,480.25,780.13,458.5,780.84,440Z"></path><path class="cls-1" d="M903.67,362.59c20.45-23.44,47.44-33,77.92-35.13,23.83-1.69,47.55-1.53,71,3.63,21.66,4.77,40.41,14.19,53.66,32.3,8.92,14.82,12.11,31,12.08,48-.06,32.33,0,64.65,0,97,0,54.07-20.51,79.21-74.27,89a210.26,210.26,0,0,1-81.49-.73c-48.38-10.25-73.73-39.34-71.63-81.54s30.08-69.89,78-76.54c12.37-1.71,24.95-2.06,37.44-2.93,9.08-.63,18.31-.31,27.24-1.78,20.77-3.41,29.77-11.93,29.47-26.48s-10-23.05-30.32-25.81c-18.7-2.54-37.57-2.86-56.21.06-12.95,2-26.46,4.68-29.65,20.57-1.23,6.12-5.64,6-10.33,5.92-7.41-.06-14.81,0-22.22,0-26.55,0-27.88-1.8-18.83-27.22C897.76,374.62,900.93,368.68,903.67,362.59ZM1063.32,506.1c0-22.28,0-22.18-22.58-18.45-6.16,1-12.46,1.29-18.71,1.76-17,1.28-34.14,1.69-51,3.95-14,1.88-24.71,8.58-24.93,24.73-.22,16.95,11.09,23.68,25.49,26.36a178.87,178.87,0,0,0,54.43,1.62C1057.07,542.31,1063.29,536,1063.32,506.1Z"></path><path class="cls-1" d="M523.86,464.54q0,23.41,0,46.83c0,50.56-19.88,74.82-70.32,85.12a208.86,208.86,0,0,1-84.81.17c-49.85-10.37-73.18-37.9-71.4-83,1.65-41.51,30.48-69.38,78.93-75.23,16.92-2,34.06-2.42,51.11-3.29,9.78-.5,19.21-2.13,28.11-6.19,9.27-4.22,13.46-11.55,13.39-21.4s-4.25-18-13.75-21.14c-29.45-9.62-59.26-9.35-88.86-.35-3.55,1.08-8.71,4.06-9.19,6.81C353.7,412.45,338.69,408,326,408.05c-31.91.14-35.41-5.7-21.59-34.76,11.33-23.82,32.08-36,56.69-41.53,36-8.16,72.42-8.37,108,2.42,36.36,11,54.12,34.9,54.71,71.83C524.11,425.52,523.85,445,523.86,464.54ZM469,506.67c0-5.58-.11-11.15,0-16.72.12-5-1.58-7.09-7-5.65-26.12,6.95-53.19,4.82-79.7,7.88-21.86,2.52-30.35,10.87-30,27.13.31,15.1,9.2,23,29.7,26A193.57,193.57,0,0,0,433,546C462.81,542.31,469,535.9,469,506.67Z"></path><path class="cls-1" d="M1173.58,501.75c0-26.21-.27-52.42.07-78.62.55-42.88,21.56-71.13,62.88-85.9,21.72-7.77,44.29-9.59,67.11-10.78,8.8-.46,10.63,2.9,10.29,10.53-.56,12.8,3.91,27.8-1.51,37.88-6.28,11.68-23.55,4.7-35.88,6.76-37,6.18-48,18.21-48.06,54.33,0,49.63-.37,99.26.25,148.89.15,11.72-1.79,16.51-15.49,16.31-39.66-.59-39.67.09-39.67-39.17Q1173.57,531.86,1173.58,501.75Z"></path><path class="cls-1" d="M996.36,0c63.86,5.76,121.68,26.24,170.1,68.39,47.8,41.63,78.65,93.06,90.45,154.93,2.07,10.89,3.85,21.86,5,32.87.56,5.51,3.27,13.55-6.61,14.13-8.58.51-9.09-6.16-9.92-12.64-6.47-50.14-24.43-95.82-57-135.36-46-55.93-104.61-91.43-177.82-102.4-5.6-.84-11.12-2.24-16.74-2.88-5.95-.68-11.72-1.07-11.3-9.11C983-1.66,990.47.53,996.36,0Z"></path><path class="cls-1" d="M1214.81,294.35c-2.56,5.88,5.23,17.87-6.28,18.73-12.47.94-9-12.92-9.86-19.44-8.72-64-38.33-117.42-86.2-160.56-42.18-38-91.44-63.71-149.69-69.86-2.26-.24-4.85-.13-6.65-1.2-6.23-3.7-20.68,2.06-17.65-12C941,38.22,953,43.09,960,44c113.81,14.31,195,71.91,238.31,176.71C1207.81,243.56,1214.52,268.16,1214.81,294.35Z"></path><path class="cls-1" d="M769.48,437.06c.1,16.72.3,33.4-2.46,50-4.74,28.45-20.62,43.17-50.27,45.12a165.66,165.66,0,0,1-27.28-.34c-25-2.49-40.76-16.66-45.49-40.56a150.76,150.76,0,0,1-.14-58.16c4.79-24.91,21.14-39.68,48.52-41.3,22.14-1.32,44.41-.28,66.61-.77,8.35-.18,10.92,3.17,10.64,10.88C769.18,413.64,769.5,425.36,769.48,437.06Z"></path></g></g></svg>